<svg viewBox="0 0 66 59" fill="none" xmlns="http://www.w3.org/2000/svg">
<path d="M0 1H13.4L21.3625 35.8625H56.3375L64.4375 8.9875L15.0625 8.2875" stroke="white" stroke-width="2"/>
<path d="M58.8875 43.9875H21.3125C20.7708 43.9995 20.2323 43.9016 19.7295 43.6998C19.2267 43.498 18.7699 43.1964 18.3868 42.8133C18.0037 42.4302 17.7021 41.9734 17.5003 41.4706C17.2985 40.9677 17.2006 40.4292 17.2125 39.8876C17.2125 35.8626 21.3625 35.8625 21.3625 35.8625" stroke="white" stroke-width="2"/>
<path d="M25.4125 57.4751C27.8495 57.4751 29.825 55.4996 29.825 53.0626C29.825 50.6257 27.8495 48.6501 25.4125 48.6501C22.9755 48.6501 21 50.6257 21 53.0626C21 55.4996 22.9755 57.4751 25.4125 57.4751Z" stroke="white" stroke-width="2"/>
<path d="M51.7749 57.4751C54.2119 57.4751 56.1874 55.4996 56.1874 53.0626C56.1874 50.6257 54.2119 48.6501 51.7749 48.6501C49.338 48.6501 47.3624 50.6257 47.3624 53.0626C47.3624 55.4996 49.338 57.4751 51.7749 57.4751Z" stroke="white" stroke-width="2"/>
</svg>
