<svg width="20" height="20" viewBox="0 0 20 20" fill="none" xmlns="http://www.w3.org/2000/svg">
<path fill-rule="evenodd" clip-rule="evenodd" d="M2.77783 7.8775V0H10.5712L19.4445 8.85417L16.2828 12.0158L17.8237 15.96L7.54033 20L2.77783 7.8775ZM4.24533 9.33417L8.01117 18.92L16.7445 15.4883L15.6395 12.6592L11.632 16.6667L4.24533 9.33417ZM3.61117 0.833333V7.53L11.6295 15.49L18.2653 8.855L10.2262 0.833333H3.61117ZM13.8195 7.74417C13.4737 7.39833 13.0987 7.23 12.6712 7.23C12.1895 7.23 11.6487 7.43083 10.862 7.89917C10.2937 8.24167 9.93033 8.38667 9.64867 8.38667C9.34783 8.38667 8.74617 8.04583 8.84783 7.37083C8.89117 7.08333 9.05617 6.79083 9.3245 6.52167C9.86783 5.97833 10.6112 5.815 11.2212 6.4325L11.8412 5.8125C11.4445 5.41667 10.9278 5.1525 10.3737 5.1525C9.902 5.1525 9.43616 5.3425 8.98783 5.71667L8.46617 5.195L7.8845 5.7775L8.42867 6.32083C7.9545 7.00917 7.727 8.005 8.492 8.76833C9.3345 9.61083 10.3153 9.21917 11.3362 8.575C11.8362 8.25917 12.2387 8.10583 12.5653 8.10583C13.0562 8.10667 13.5487 8.52083 13.4637 9.15417C13.4203 9.47583 13.247 9.79083 12.9462 10.0892C12.5703 10.465 12.1928 10.655 11.8237 10.655C11.4753 10.655 11.2012 10.495 10.9495 10.27L10.3337 10.8858C10.7195 11.2675 11.2353 11.5133 11.7795 11.5133C12.2328 11.5133 12.6853 11.3458 13.1228 11.0158L13.5728 11.4642L14.1537 10.8833L13.7203 10.4492C14.3395 9.7025 14.6845 8.60833 13.8195 7.74333V7.74417ZM6.11117 1.6675C7.03117 1.6675 7.77783 2.41417 7.77783 3.33417C7.77783 4.25417 7.03117 5.00083 6.11117 5.00083C5.19117 5.00083 4.4445 4.25417 4.4445 3.33417C4.4445 2.41417 5.19117 1.6675 6.11117 1.6675ZM6.11117 2.50083C6.57117 2.50083 6.9445 2.87417 6.9445 3.33417C6.9445 3.79417 6.57117 4.1675 6.11117 4.1675C5.65117 4.1675 5.27783 3.79417 5.27783 3.33417C5.27783 2.87417 5.65117 2.50083 6.11117 2.50083Z" fill="white"/>
</svg>
