<svg width="45" height="45" viewBox="0 0 45 45" fill="none" xmlns="http://www.w3.org/2000/svg">
<path d="M3.73168 32.7074H40.6097M3.73168 11.6342H40.6097M1.09753 22.1708H43.2439M22.1707 43.244C22.1707 43.244 10.317 37.9757 10.317 22.1708C10.317 6.36595 22.1707 1.09766 22.1707 1.09766M22.1707 1.09766C22.1707 1.09766 34.0244 6.36595 34.0244 22.1708C34.0244 37.9757 22.1707 43.244 22.1707 43.244M22.1707 1.09766V43.244M43.2439 22.1708C43.2439 33.8093 33.8092 43.244 22.1707 43.244C10.5323 43.244 1.09753 33.8093 1.09753 22.1708C1.09753 10.5324 10.5323 1.09766 22.1707 1.09766C33.8092 1.09766 43.2439 10.5324 43.2439 22.1708Z" stroke="white" stroke-width="1.3"/>
</svg>
