<svg width="45" height="45" viewBox="0 0 45 45" fill="none" xmlns="http://www.w3.org/2000/svg">
<path d="M31.5079 15.5163C32.6263 15.5163 33.5329 14.6097 33.5329 13.4913C33.5329 12.3729 32.6263 11.4663 31.5079 11.4663C30.3895 11.4663 29.4829 12.3729 29.4829 13.4913C29.4829 14.6097 30.3895 15.5163 31.5079 15.5163Z" fill="white"/>
<path d="M22.4993 13.835C20.7855 13.835 19.1101 14.3432 17.6851 15.2953C16.2601 16.2475 15.1495 17.6008 14.4936 19.1842C13.8377 20.7676 13.6661 22.5099 14.0005 24.1908C14.3348 25.8717 15.1601 27.4157 16.372 28.6276C17.5839 29.8394 19.1279 30.6647 20.8088 30.9991C22.4897 31.3334 24.232 31.1618 25.8154 30.506C27.3988 29.8501 28.7521 28.7395 29.7042 27.3145C30.6564 25.8895 31.1646 24.2141 31.1646 22.5003C31.1646 20.2021 30.2517 17.998 28.6266 16.373C27.0015 14.7479 24.7975 13.835 22.4993 13.835ZM22.4993 28.1253C21.3868 28.1253 20.2992 27.7954 19.3742 27.1773C18.4492 26.5592 17.7282 25.6807 17.3025 24.6529C16.8767 23.625 16.7653 22.494 16.9824 21.4029C17.1994 20.3117 17.7352 19.3095 18.5218 18.5228C19.3085 17.7361 20.3108 17.2004 21.4019 16.9834C22.4931 16.7663 23.6241 16.8777 24.6519 17.3034C25.6797 17.7292 26.5582 18.4502 27.1763 19.3752C27.7944 20.3002 28.1243 21.3878 28.1243 22.5003C28.1243 23.9921 27.5317 25.4229 26.4768 26.4777C25.4219 27.5326 23.9911 28.1253 22.4993 28.1253Z" fill="white"/>
<path d="M22.5 8.66531C27.0056 8.66531 27.54 8.68219 29.3189 8.76375C30.3888 8.77645 31.4486 8.9729 32.452 9.34453C33.18 9.62535 33.8411 10.0555 34.3928 10.6072C34.9445 11.1589 35.3747 11.82 35.6555 12.548C36.0271 13.5514 36.2235 14.6112 36.2362 15.6811C36.3178 17.46 36.3347 17.9944 36.3347 22.5014C36.3347 27.0084 36.3178 27.54 36.2362 29.3189C36.2235 30.3888 36.0271 31.4486 35.6555 32.452C35.3747 33.18 34.9445 33.8411 34.3928 34.3928C33.8411 34.9445 33.18 35.3747 32.452 35.6555C31.4486 36.0271 30.3888 36.2235 29.3189 36.2362C27.54 36.3178 27.0056 36.3347 22.5 36.3347C17.9944 36.3347 17.46 36.3178 15.6811 36.2362C14.6112 36.2235 13.5514 36.0271 12.548 35.6555C11.82 35.3747 11.1589 34.9445 10.6072 34.3928C10.0555 33.8411 9.62535 33.18 9.34453 32.452C8.9729 31.4486 8.77645 30.3888 8.76375 29.3189C8.68219 27.54 8.66531 27.0056 8.66531 22.5C8.66531 17.9944 8.68219 17.46 8.76375 15.6811C8.77645 14.6112 8.9729 13.5514 9.34453 12.548C9.62535 11.82 10.0555 11.1589 10.6072 10.6072C11.1589 10.0555 11.82 9.62535 12.548 9.34453C13.5514 8.9729 14.6112 8.77645 15.6811 8.76375C17.46 8.68219 17.9944 8.66531 22.5 8.66531ZM22.5 5.625C17.917 5.625 17.3419 5.64469 15.5419 5.72625C14.1423 5.75451 12.7577 6.01983 11.4469 6.51094C10.3257 6.94448 9.30749 7.6075 8.45749 8.45749C7.6075 9.30749 6.94448 10.3257 6.51094 11.4469C6.01968 12.7582 5.75435 14.1433 5.72625 15.5433C5.64469 17.3433 5.625 17.9156 5.625 22.5C5.625 27.0844 5.64469 27.6581 5.72625 29.4581C5.75451 30.8577 6.01983 32.2423 6.51094 33.5531C6.94448 34.6743 7.6075 35.6925 8.45749 36.5425C9.30749 37.3925 10.3257 38.0555 11.4469 38.4891C12.7582 38.9803 14.1433 39.2456 15.5433 39.2738C17.3433 39.3553 17.917 39.375 22.5 39.375C27.083 39.375 27.6581 39.3553 29.4581 39.2738C30.8581 39.2456 32.2432 38.9803 33.5545 38.4891C34.6757 38.0555 35.6939 37.3925 36.5439 36.5425C37.3939 35.6925 38.0569 34.6743 38.4905 33.5531C38.9813 32.2418 39.2461 30.8566 39.2738 29.4567C39.3553 27.6567 39.375 27.0844 39.375 22.5C39.375 17.9156 39.3553 17.3419 39.2738 15.5419C39.2455 14.1423 38.9802 12.7577 38.4891 11.4469C38.0555 10.3257 37.3925 9.30749 36.5425 8.45749C35.6925 7.6075 34.6743 6.94448 33.5531 6.51094C32.2418 6.02016 30.8566 5.75531 29.4567 5.72766C27.6567 5.64328 27.0844 5.625 22.5 5.625Z" fill="white"/>
</svg>
