<svg width="45" height="45" viewBox="0 0 45 45" fill="none" xmlns="http://www.w3.org/2000/svg">
<path d="M9.34298 13.4938C11.6087 13.4938 13.4455 11.6571 13.4455 9.39132C13.4455 7.12557 11.6087 5.28882 9.34298 5.28882C7.07723 5.28882 5.24048 7.12557 5.24048 9.39132C5.24048 11.6571 7.07723 13.4938 9.34298 13.4938Z" fill="white"/>
<path d="M17.3192 16.6035V39.3641H24.3861V28.1085C24.3861 25.1385 24.9449 22.2623 28.6274 22.2623C32.2592 22.2623 32.3042 25.6579 32.3042 28.296V39.366H39.3749V26.8841C39.3749 20.7529 38.0549 16.041 30.8886 16.041C27.448 16.041 25.1417 17.9291 24.1986 19.716H24.103V16.6035H17.3192ZM5.80298 16.6035H12.8811V39.3641H5.80298V16.6035Z" fill="white"/>
</svg>
