<svg width="16" height="16" viewBox="0 0 16 16" fill="none" xmlns="http://www.w3.org/2000/svg">
<g clip-path="url(#clip0_22_181)">
<path d="M15.8951 15.3909L10.4934 9.98966C11.4362 8.92796 12.0143 7.53606 12.0143 6.00776C12.0143 2.69514 9.31964 0.000488281 6.00727 0.000488281C2.69465 0.000488281 0 2.69514 0 6.00776C0 9.32013 2.69465 12.0148 6.00727 12.0148C7.53531 12.0148 8.92747 11.4367 9.98917 10.4938L15.3904 15.8956C15.4598 15.9649 15.5514 16 15.6426 16C15.7341 16 15.8258 15.9649 15.8951 15.8956C16.0348 15.7556 16.0348 15.5303 15.8951 15.3909ZM6.00727 11.301C3.08834 11.301 0.71373 8.92669 0.71373 6.00776C0.71373 3.08883 3.08834 0.714218 6.00727 0.714218C8.92594 0.714218 11.3006 3.08883 11.3006 6.00776C11.3006 7.33895 10.8032 8.55357 9.98917 9.48472C9.83195 9.66404 9.6638 9.83218 9.48448 9.98941C8.55333 10.8037 7.33847 11.301 6.00727 11.301Z" fill="white"/>
</g>
<defs>
<clipPath id="clip0_22_181">
<rect width="16" height="16" fill="white"/>
</clipPath>
</defs>
</svg>
