<svg width="20" height="20" viewBox="0 0 20 20" fill="none" xmlns="http://www.w3.org/2000/svg">
<path fill-rule="evenodd" clip-rule="evenodd" d="M12.9183 0L15.5549 0.538333C14.6458 3.07167 14.9583 4.3375 14.9883 4.495C15.3524 6.38833 16.3724 7.30917 16.6649 7.55167L16.6666 20H3.33325V7.55083C3.63325 7.3075 4.64909 6.38083 5.01159 4.495C5.03742 4.3575 5.32992 3.15417 4.46325 0.539167L7.06992 0.0075C8.24159 1.665 9.61408 1.7225 9.99158 1.7225C11.0891 1.7225 12.1391 1.09583 12.9183 0ZM4.16659 19.1667H15.8333V7.93167C15.4608 7.56833 14.5249 6.49917 14.1699 4.65167C13.9224 3.36333 14.2549 1.895 14.4633 1.16667L13.5774 0.9875C13.1791 2.9675 12.4549 5.83167 9.99992 5.83167C7.53575 5.83167 6.81075 2.9675 6.41242 0.986667L5.53242 1.16833C5.73242 1.91 6.06409 3.43 5.82992 4.65167C5.47492 6.49917 4.53909 7.56833 4.16659 7.93167V19.1667ZM7.34492 1.47833C7.68492 2.99667 8.38825 4.99917 9.99992 4.99917C11.6083 4.99917 12.3099 2.99417 12.6458 1.48333C12.0508 2.01333 11.1608 2.55333 9.99242 2.55083C9.03409 2.54833 8.12325 2.17417 7.34492 1.47833Z" fill="white"/>
</svg>
