<svg width="45" height="45" viewBox="0 0 45 45" fill="none" xmlns="http://www.w3.org/2000/svg">
<path d="M40.7813 11.1753C39.4365 11.7554 37.9732 12.1729 36.4658 12.3355C38.0308 11.4057 39.2027 9.93693 39.7617 8.20461C38.2932 9.07819 36.6845 9.69077 35.0068 10.0152C34.3057 9.26556 33.4576 8.66841 32.5156 8.26089C31.5735 7.85338 30.5577 7.64424 29.5313 7.6465C25.3784 7.6465 22.0386 11.0127 22.0386 15.1436C22.0386 15.7237 22.1089 16.3037 22.2232 16.8618C16.0049 16.5366 10.459 13.5659 6.77197 9.0176C6.10016 10.1651 5.74811 11.4716 5.75244 12.8013C5.75244 15.4028 7.0752 17.6968 9.09229 19.0459C7.90358 18.9991 6.74272 18.6724 5.7041 18.0923V18.1846C5.7041 21.8277 8.2793 24.8467 11.7114 25.541C11.067 25.7084 10.4041 25.7941 9.73828 25.7959C9.25049 25.7959 8.78906 25.7476 8.32324 25.6817C9.27246 28.6524 12.0366 30.8101 15.3281 30.8804C12.7529 32.8975 9.52735 34.084 6.0249 34.084C5.39648 34.084 4.81641 34.062 4.21436 33.9917C7.53662 36.1231 11.4785 37.3535 15.7236 37.3535C29.5049 37.3535 37.0459 25.9365 37.0459 16.0269C37.0459 15.7017 37.0459 15.3765 37.0239 15.0513C38.4829 13.9834 39.7617 12.6607 40.7813 11.1753Z" fill="white"/>
</svg>
