<svg width="45" height="45" viewBox="0 0 45 45" fill="none" xmlns="http://www.w3.org/2000/svg">
<path d="M40.4873 13.5056C40.2737 12.7133 39.8563 11.9906 39.2767 11.4097C38.6971 10.8288 37.9754 10.4098 37.1835 10.1944C34.2473 9.38814 22.5004 9.37501 22.5004 9.37501C22.5004 9.37501 10.7554 9.36189 7.81725 10.1325C7.02586 10.3578 6.30567 10.7827 5.72581 11.3665C5.14596 11.9503 4.72591 12.6734 4.506 13.4663C3.73162 16.4025 3.72412 22.4925 3.72412 22.4925C3.72412 22.4925 3.71662 28.6125 4.48537 31.5188C4.91662 33.1256 6.18225 34.395 7.791 34.8281C10.7573 35.6344 22.4723 35.6475 22.4723 35.6475C22.4723 35.6475 34.2191 35.6606 37.1554 34.8919C37.9476 34.6769 38.6699 34.2589 39.251 33.6791C39.8321 33.0993 40.2517 32.378 40.4685 31.5863C41.2448 28.6519 41.2504 22.5638 41.2504 22.5638C41.2504 22.5638 41.2879 16.4419 40.4873 13.5056ZM18.7429 28.1344L18.7523 16.8844L28.5154 22.5188L18.7429 28.1344Z" fill="white"/>
</svg>
